# xmcd
#
# Track frame offsets: 
#        182
#        30990
#        54192
#        77392
#        104255
#        124897
#        151600
#        172775
#        192467
#        211617
#        231155
#
# Disc length: 3346 seconds
#
# Revision: 0
# Processed by: cddbd v1.5.1PL0 Copyright (c) Steve Scherf et al.
# Submitted via: ExactAudioCopy v0.95a5
#
DISCID=730d100b
DTITLE=Billy Branch and Hubert Sumlin - Chicago Blues Session Vol 22 
DYEAR=1993
DGENRE=Blues
TTITLE0=Hubert Sumlin - You Can't Change Me
TTITLE1=Hubert Sumlin - I Did What I Could
TTITLE2=Billy Branch - Baby What You Want Me To Do
TTITLE3=Billy Branch - That's All Right
TTITLE4=Billy Branch - Just Your Fool
TTITLE5=Billy Branch - Everything Gonna Be All Right
TTITLE6=Billy Branch - Take You Down Town
TTITLE7=Hubert Sumlin and John Primer - First Song I Ever Did
TTITLE8=Hubert Sumlin and John Primer - Real Far Away
TTITLE9=Hubert Sumlin and John Primer - No Place To Go
TTITLE10=Hubert Sumlin and John Primer - I've Been Gone
EXTD=
EXTT0=
EXTT1=
EXTT2=
EXTT3=
EXTT4=
EXTT5=
EXTT6=
EXTT7=
EXTT8=
EXTT9=
EXTT10=
PLAYORDER=
